<svg xmlns="http://www.w3.org/2000/svg" viewBox="0 0 200 200"><defs><style>.cls-1,.cls-4,.cls-7{fill:none;}.cls-1{stroke:#bbc8fe;stroke-dasharray:12 12;}.cls-1,.cls-4,.cls-5{stroke-miterlimit:10;}.cls-2{fill:#bbc8fe;}.cls-3{fill:#6583fe;}.cls-4{stroke:#0d5cef;}.cls-5,.cls-8{fill:#0d5cef;}.cls-5{stroke:#fff;}.cls-6{fill:#fff;}</style></defs><g id="CV"><line class="cls-1" x1="58.11" y1="166.52" x2="58.11" y2="77.89"/><circle class="cls-2" cx="56.17" cy="48.54" r="18.74"/><polygon class="cls-3" points="147.21 40.91 147.21 118.92 140.83 125.3 140.83 46.03 52.8 46.03 52.8 40.91 147.21 40.91"/><polygon class="cls-3" points="140.83 135.84 147.21 129.55 147.21 159.09 52.8 159.09 52.8 153.97 140.83 153.97 140.83 135.84"/><polygon class="cls-4" points="147.21 118.92 125.16 140.98 130.35 146.17 147.21 129.55 147.21 159.09 52.8 159.09 52.8 40.91 147.21 40.91 147.21 118.92"/><line class="cls-4" x1="60.68" y1="97.57" x2="89.14" y2="97.57"/><line class="cls-4" x1="60.68" y1="107.57" x2="89.14" y2="107.57"/><line class="cls-4" x1="60.68" y1="117.57" x2="89.14" y2="117.57"/><line class="cls-4" x1="110.36" y1="96.33" x2="138.83" y2="96.33"/><line class="cls-4" x1="110.36" y1="106.22" x2="138.83" y2="106.22"/><line class="cls-4" x1="110.36" y1="116.11" x2="138.83" y2="116.11"/><line class="cls-4" x1="110.36" y1="101.28" x2="138.83" y2="101.28"/><line class="cls-4" x1="110.36" y1="111.17" x2="138.83" y2="111.17"/><line class="cls-4" x1="110.36" y1="121.05" x2="138.83" y2="121.05"/><path class="cls-4" d="M119.3,68.32A19.3,19.3,0,1,1,100,49,19.2,19.2,0,0,1,119.3,68.32Z"/><path class="cls-4" d="M113.63,79.85a13.62,13.62,0,0,1-.2,2.32,19.29,19.29,0,0,1-26.85,0,13.62,13.62,0,1,1,27.05-2.32Z"/><circle class="cls-5" cx="100" cy="63.5" r="8.31"/><polygon class="cls-6" points="175.15 101.05 175.15 106.1 170.12 111.13 168.02 109.03 162.56 103.57 167.59 98.54 172.65 98.54 173.9 99.79 175.15 101.05"/><polyline class="cls-7" points="132.71 148.54 132.71 148.53 132.7 148.53 130.35 146.17"/><polygon class="cls-3" points="175.15 101.05 175.15 106.1 170.12 111.13 147.21 134.03 147.21 134.04 140.83 140.42 132.71 148.53 132.7 148.53 121.38 152.32 130.35 146.17 140.83 135.84 147.21 129.55 168.02 109.03 172.87 104.16 173.9 99.79 175.15 101.05"/><polygon class="cls-4" points="168.02 109.03 147.21 129.55 140.83 135.84 130.35 146.17 125.16 140.98 140.83 125.3 147.21 118.92 162.56 103.57 168.02 109.03"/><polygon class="cls-4" points="170.12 111.13 132.71 148.54 121.38 152.32 125.16 140.98 130.35 146.17 140.83 135.84 147.21 129.55 168.02 109.03 170.12 111.13"/><polygon class="cls-4" points="175.15 101.05 175.15 106.1 170.12 111.13 168.02 109.03 162.56 103.57 167.59 98.54 172.65 98.54 173.9 99.79 175.15 101.05"/><polyline class="cls-4" points="132.71 148.54 132.71 148.53 132.7 148.53 130.35 146.17"/><line class="cls-4" x1="153.12" y1="38.86" x2="153.12" y2="80.51"/><circle class="cls-8" cx="30.7" cy="174.41" r="3.23"/><circle class="cls-2" cx="182.93" cy="74.47" r="6.04"/><circle class="cls-2" cx="35.52" cy="24.95" r="2.74"/><polyline class="cls-4" points="98.78 33.26 44.82 33.26 44.82 49.03"/><line class="cls-1" x1="94.56" y1="171.19" x2="168.85" y2="171.19"/></g></svg>