<svg xmlns="http://www.w3.org/2000/svg" viewBox="0 0 200 200"><defs><style>.cls-1{fill:#bbc8fe;}.cls-2{fill:#6583fe;}.cls-3,.cls-4{fill:none;stroke-miterlimit:10;}.cls-3{stroke:#0d5cef;stroke-width:3px;}.cls-4{stroke:#bbc8fe;}.cls-5{fill:#0d5cef;}</style></defs><g id="GRE"><rect class="cls-1" x="50.83" y="19.46" width="5.46" height="118.02"/><polygon class="cls-2" points="168.08 100 100 168.08 31.92 100 38.21 93.71 100 155.5 161.79 93.71 168.08 100"/><rect class="cls-3" x="51.86" y="51.86" width="96.28" height="96.28" transform="translate(100 -41.42) rotate(45)"/><path class="cls-2" d="M91.5,90.77H83.59c-1.09-2-3.1-3-5.78-3-4.6,0-7.66,3.27-7.66,8.38,0,5.44,3.1,8.62,8.25,8.62a7,7,0,0,0,7.12-5.19H76.43V94.29H92v6.65a14.4,14.4,0,0,1-14.15,10.14c-8.8,0-15-6.16-15-15s6.15-15,14.94-15C84.85,81.14,90,84.74,91.5,90.77Z"/><path class="cls-2" d="M105.92,81.47c7.21,0,10.81,4.15,10.81,9.26a8.56,8.56,0,0,1-6.53,8.5L117,110.87H108.9l-6.12-11.1h-1.71v11.1H93.91V81.47Zm-.41,6h-4.44V94.7h4.44c2.68,0,3.93-1.38,3.93-3.68S108.19,87.42,105.51,87.42Z"/><path class="cls-2" d="M137.13,87.21H126.29v5.94h9.59v5.53h-9.59v6.45h10.84v5.74h-18V81.47h18Z"/><rect class="cls-4" x="141.64" y="41" width="10.33" height="10.33" transform="translate(10.36 117.33) rotate(-45)"/><rect class="cls-1" x="58.12" y="151.06" width="7.7" height="7.7" transform="translate(-91.39 89.19) rotate(-45)"/><path class="cls-5" d="M73.65,30.59l1.07,2.19a.52.52,0,0,0,.41.29l2.41.35a.54.54,0,0,1,.3.92L76.09,36a.55.55,0,0,0-.15.48l.41,2.4a.54.54,0,0,1-.78.56l-2.16-1.13a.55.55,0,0,0-.5,0l-2.15,1.13a.53.53,0,0,1-.78-.56l.41-2.4a.55.55,0,0,0-.15-.48l-1.75-1.7a.54.54,0,0,1,.3-.92l2.41-.35a.49.49,0,0,0,.4-.29l1.08-2.19A.55.55,0,0,1,73.65,30.59Z"/><rect class="cls-4" x="23.09" y="150.09" width="19.78" height="19.78"/><rect class="cls-5" x="147.1" y="145.77" width="5.79" height="5.79"/></g></svg>