<svg xmlns="http://www.w3.org/2000/svg" viewBox="0 0 200 200"><defs><style>.cls-1{fill:#bbc8fe;}.cls-2{fill:#6583fe;}.cls-3,.cls-5,.cls-6{fill:none;stroke-miterlimit:10;}.cls-3,.cls-5{stroke:#0d5cef;}.cls-3{stroke-width:2px;}.cls-4{fill:#0d5cef;}.cls-5{stroke-width:3px;}.cls-6{stroke:#bbc8fe;}</style></defs><g id="Interview"><rect class="cls-1" x="159.8" y="126.76" width="22.62" height="22.62"/><path class="cls-2" d="M100,95.46V151.6l13-13h59.58v-4.7H110.26l-5.81,6.73V95.46Z"/><path class="cls-3" d="M100,151.05l13-13h59.58V94.91H100Z"/><path class="cls-2" d="M95.55,68.49v45.13l-5.81-6.72H27.39v4.7H87l13,13V68.49Z"/><path class="cls-2" d="M61,100.46a2.06,2.06,0,0,0-2.1,2.1,3.12,3.12,0,0,0,2.73,2.6A2.08,2.08,0,0,0,63.73,103,3.09,3.09,0,0,0,61,100.46Zm3.22-24.63c-5.18,0-8.84,3.17-8.84,7.69h2.76c0-3,2.34-5.21,6.08-5.21s6.21,2.25,6.21,5.92c0,5.63-4.4,6.53-9.13,6.53H60.27l.16,6.13h2.48L63,92.82c5.92,0,10.19-2.39,10.19-8.59C73.22,79.13,69.52,75.83,64.26,75.83Z"/><path class="cls-4" d="M61,100.46a2.06,2.06,0,0,0-2.1,2.1,2.08,2.08,0,1,0,4.16,0A2.05,2.05,0,0,0,61,100.46Zm2.59-25.08c-5.18,0-8.84,3.17-8.84,8.14h2.76c0-3.5,2.34-5.67,6.08-5.67s6.21,2.25,6.21,5.92c0,5.63-4.4,6.54-9.13,6.54H59.64l.16,6.58h2.48l.12-4.52c5.92,0,10.19-2.4,10.19-8.6C72.59,78.67,68.89,75.38,63.63,75.38Z"/><path class="cls-3" d="M100,68.49H27.39V111.6H87l13,13Z"/><rect class="cls-2" x="115.24" y="104.62" width="44.56" height="3.58"/><line class="cls-5" x1="115.24" y1="105.96" x2="158.9" y2="105.96"/><rect class="cls-2" x="115.24" y="113.18" width="44.56" height="3.58"/><line class="cls-5" x1="115.24" y1="114.52" x2="158.9" y2="114.52"/><rect class="cls-2" x="115.24" y="121.74" width="44.56" height="3.58"/><line class="cls-5" x1="115.24" y1="123.08" x2="158.9" y2="123.08"/><rect class="cls-1" x="127.06" y="61.36" width="11.36" height="11.36"/><rect class="cls-1" x="18.58" y="52.56" width="68.26" height="2.46"/><rect class="cls-4" x="163.41" y="72.6" width="30.99" height="2.46"/><rect class="cls-1" x="64.09" y="144.02" width="41.84" height="2.46" transform="translate(-60.24 230.25) rotate(-90)"/><rect class="cls-6" x="49.92" y="124.33" width="4.87" height="4.87"/><rect class="cls-4" x="25.9" y="156.55" width="11.02" height="11.02"/></g></svg>