<svg width="48" height="48" viewBox="0 0 48 48" fill="none" xmlns="http://www.w3.org/2000/svg">
<path d="M43.3548 5.53857H4.64509C3.4554 5.53857 2.37015 5.98567 1.54834 6.72123L0.764404 10.1838V32.692C0.764404 35.2575 2.84406 37.3373 5.40953 37.3373H43.3547L46.8173 36.5064C47.5528 35.6845 47.9999 34.5992 47.9999 33.4096V10.1837C48 7.61823 45.9203 5.53857 43.3548 5.53857Z" fill="#6CE9A6"/>
<path d="M38.7096 41.9256H9.2903C8.86233 41.9256 8.51611 41.5789 8.51611 41.1514C8.51611 40.7239 8.86243 40.3772 9.2903 40.3772H38.7096C39.1376 40.3772 39.4838 40.7239 39.4838 41.1514C39.4838 41.5789 39.1376 41.9256 38.7096 41.9256Z" fill="#6CE9A6"/>
<path d="M32.0688 20.4115L20.0472 14.4007C19.9397 14.3469 19.8303 14.3062 19.7203 14.2791L18.4792 15.7856V27.8072L20.0472 28.4428L32.0688 22.432L32.5672 20.8019C32.4368 20.6466 32.2706 20.5125 32.0688 20.4115Z" fill="white"/>
<path d="M4.64512 36.5063C2.93484 36.5063 1.54838 35.1199 1.54838 33.4096V6.72119C0.600094 7.57169 0 8.80975 0 10.1838V33.4096C0 35.975 2.07966 38.0547 4.64512 38.0547H43.3548C44.7288 38.0547 45.967 37.4546 46.8173 36.5063H4.64512Z" fill="#12B76A"/>
<path d="M23.0816 25.5478C21.5374 26.32 19.7203 25.197 19.7203 23.4704V14.279C18.7778 14.0456 17.8064 14.7546 17.8064 15.7857V27.8073C17.8064 28.9584 19.0177 29.707 20.0472 29.1922L32.0688 23.1814C33.0076 22.712 33.173 21.5254 32.5672 20.802L23.0816 25.5478Z" fill="#E3F5FF"/>
</svg>
